<svg width="287" height="53" viewBox="0 0 287 53" fill="none" xmlns="http://www.w3.org/2000/svg">
<path d="M6.048 31.52C4.55467 31.52 3.392 31.296 2.56 30.848C1.73867 30.4 1.26933 29.7013 1.152 28.752C1.14133 28.656 1.13067 28.5333 1.12 28.384C1.10933 28.2347 1.10933 28.08 1.12 27.92C1.16267 27.344 1.37067 26.8747 1.744 26.512C2.11733 26.16 2.576 25.9467 3.12 25.872V25.392C2.61867 25.2533 2.22933 25.0453 1.952 24.768C1.67467 24.4907 1.51467 24.1333 1.472 23.696C1.46133 23.5893 1.456 23.4827 1.456 23.376C1.456 23.2693 1.46133 23.1573 1.472 23.04C1.504 22.592 1.68533 22.2187 2.016 21.92C2.35733 21.6213 2.768 21.44 3.248 21.376V20.896C2.59733 20.576 2.112 20.1013 1.792 19.472C1.472 18.8427 1.28533 18.0267 1.232 17.024C1.22133 16.416 1.21067 15.8773 1.2 15.408C1.18933 14.928 1.184 14.4693 1.184 14.032C1.184 13.584 1.18933 13.1147 1.2 12.624C1.21067 12.1333 1.22133 11.5733 1.232 10.944C1.28533 9.92 1.472 9.088 1.792 8.448C2.112 7.79733 2.61333 7.32266 3.296 7.024C3.97867 6.71467 4.87467 6.56 5.984 6.56C7.11467 6.56 8.01067 6.71467 8.672 7.024C9.33333 7.33333 9.824 7.824 10.144 8.496H10.64C10.6933 7.92 10.8907 7.49333 11.232 7.216C11.5733 6.93867 12.064 6.8 12.704 6.8V8.976H12.192C11.7547 8.976 11.408 9.14133 11.152 9.472C10.9067 9.80267 10.7787 10.32 10.768 11.024L10.736 12.608C10.7467 13.0027 10.752 13.376 10.752 13.728C10.752 14.0693 10.752 14.4053 10.752 14.736C10.752 15.0667 10.7467 15.4187 10.736 15.792C10.736 16.1653 10.7253 16.576 10.704 17.024C10.6507 18.0693 10.4587 18.9173 10.128 19.568C9.808 20.208 9.312 20.672 8.64 20.96C7.968 21.248 7.07733 21.392 5.968 21.392C5.11467 21.3813 4.50667 21.472 4.144 21.664C3.792 21.8453 3.616 22.1493 3.616 22.576V22.736C3.62667 22.992 3.696 23.2 3.824 23.36C3.96267 23.5093 4.20267 23.6213 4.544 23.696C4.896 23.7707 5.40267 23.8187 6.064 23.84C7.73867 23.8827 8.99733 24.1547 9.84 24.656C10.6827 25.1573 11.168 25.9893 11.296 27.152C11.3067 27.312 11.312 27.472 11.312 27.632C11.312 27.8027 11.3067 27.984 11.296 28.176C11.232 28.9973 10.9813 29.648 10.544 30.128C10.1067 30.6187 9.50933 30.9707 8.752 31.184C7.99467 31.408 7.09333 31.52 6.048 31.52ZM6.112 29.472C6.656 29.472 7.13067 29.424 7.536 29.328C7.94133 29.2427 8.256 29.0933 8.48 28.88C8.71467 28.6667 8.85867 28.3733 8.912 28C8.93333 27.8613 8.93867 27.728 8.928 27.6C8.928 27.4827 8.91733 27.3653 8.896 27.248C8.84267 26.864 8.69867 26.576 8.464 26.384C8.24 26.192 7.92533 26.0587 7.52 25.984C7.12533 25.9093 6.656 25.8613 6.112 25.84C5.30133 25.808 4.67733 25.8933 4.24 26.096C3.80267 26.2987 3.552 26.688 3.488 27.264C3.46667 27.3813 3.456 27.504 3.456 27.632C3.456 27.7707 3.46133 27.8933 3.472 28C3.51467 28.3947 3.64267 28.6987 3.856 28.912C4.06933 29.1253 4.36267 29.2693 4.736 29.344C5.12 29.4293 5.57867 29.472 6.112 29.472ZM5.968 19.232C6.69333 19.232 7.19467 19.088 7.472 18.8C7.76 18.512 7.92 18.032 7.952 17.36C7.97333 16.88 7.98933 16.3573 8 15.792C8.02133 15.2267 8.032 14.6453 8.032 14.048C8.032 13.4507 8.02133 12.8587 8 12.272C7.98933 11.6853 7.97333 11.1307 7.952 10.608C7.92 9.91467 7.75467 9.42933 7.456 9.152C7.168 8.864 6.672 8.72 5.968 8.72C5.264 8.72 4.75733 8.864 4.448 9.152C4.14933 9.44 3.98933 9.936 3.968 10.64C3.94667 11.248 3.93067 11.8507 3.92 12.448C3.90933 13.0347 3.904 13.6107 3.904 14.176C3.904 14.7413 3.90933 15.2853 3.92 15.808C3.93067 16.3307 3.94667 16.832 3.968 17.312C4 17.9733 4.16 18.4587 4.448 18.768C4.736 19.0773 5.24267 19.232 5.968 19.232ZM17.14 26.208C16.0093 26.208 15.172 25.8987 14.628 25.28C14.0947 24.6507 13.7747 23.6747 13.668 22.352C13.6573 22.096 13.6467 21.8293 13.636 21.552C13.636 21.2747 13.6413 21.0133 13.652 20.768C13.7053 19.9893 13.8493 19.3013 14.084 18.704C14.3187 18.096 14.692 17.5467 15.204 17.056C15.7267 16.5547 16.4307 16.0853 17.316 15.648C17.796 15.392 18.2867 15.1573 18.788 14.944C19.2893 14.72 19.8013 14.512 20.324 14.32V10.64C20.324 9.97867 20.196 9.49333 19.94 9.184C19.684 8.87467 19.22 8.72 18.548 8.72C17.9613 8.72 17.5293 8.85333 17.252 9.12C16.9853 9.376 16.836 9.856 16.804 10.56C16.7933 10.784 16.7827 11.0773 16.772 11.44C16.772 11.8027 16.772 12.176 16.772 12.56C16.7827 12.944 16.7933 13.2747 16.804 13.552H14.084C14.0733 13.2107 14.0627 12.7787 14.052 12.256C14.0413 11.7227 14.0413 11.248 14.052 10.832C14.0947 9.82933 14.2707 9.01333 14.58 8.384C14.8893 7.75467 15.3693 7.296 16.02 7.008C16.6813 6.70933 17.5507 6.56 18.628 6.56C19.7587 6.56 20.6493 6.72 21.3 7.04C21.9507 7.36 22.4093 7.86667 22.676 8.56C22.9533 9.24267 23.092 10.1333 23.092 11.232L23.076 26H20.292V24.192H19.876C19.6093 24.8533 19.268 25.3547 18.852 25.696C18.4467 26.0373 17.876 26.208 17.14 26.208ZM18.164 24.128C18.676 24.128 19.108 23.9787 19.46 23.68C19.8227 23.3813 20.1053 22.96 20.308 22.416V16.4C19.9347 16.528 19.556 16.6827 19.172 16.864C18.7987 17.0453 18.3933 17.2907 17.956 17.6C17.3587 17.9947 16.9587 18.4533 16.756 18.976C16.5533 19.4987 16.436 20.096 16.404 20.768C16.404 20.9707 16.404 21.1947 16.404 21.44C16.404 21.6747 16.4093 21.9093 16.42 22.144C16.4733 22.784 16.6493 23.2747 16.948 23.616C17.2573 23.9573 17.6627 24.128 18.164 24.128ZM26.3043 26V6.8H29.0883V8.768H29.6323C29.7923 8 30.0749 7.472 30.4803 7.184C30.8856 6.88533 31.4243 6.736 32.0963 6.736C32.2989 6.736 32.5016 6.74133 32.7043 6.752C32.9069 6.76267 33.0723 6.77333 33.2003 6.784V8.976H32.1283C31.1576 8.976 30.4483 9.14667 30.0003 9.488C29.5523 9.82933 29.2483 10.3573 29.0883 11.072V26H26.3043ZM41.2463 26.24C40.4463 26.24 39.8276 26.0693 39.3903 25.728C38.9636 25.3867 38.5743 24.8747 38.2223 24.192H37.8383V26H35.0543V0.4H37.8383V8.608H38.3983C38.7503 7.91467 39.1396 7.40267 39.5663 7.072C39.9929 6.73067 40.6116 6.56 41.4223 6.56C42.4996 6.56 43.3049 6.88533 43.8383 7.536C44.3716 8.176 44.6649 9.248 44.7183 10.752C44.7396 11.6373 44.7556 12.5707 44.7663 13.552C44.7876 14.5227 44.7983 15.504 44.7983 16.496C44.7983 17.488 44.7876 18.4587 44.7663 19.408C44.7556 20.3467 44.7396 21.2213 44.7183 22.032C44.6649 23.536 44.3449 24.6133 43.7583 25.264C43.1716 25.9147 42.3343 26.24 41.2463 26.24ZM40.3343 24.128C40.8889 24.128 41.2889 23.9787 41.5343 23.68C41.7796 23.3813 41.9129 22.9067 41.9343 22.256C41.9663 21.3813 41.9876 20.4693 41.9983 19.52C42.0196 18.5707 42.0303 17.5947 42.0303 16.592C42.0303 15.5893 42.0196 14.5813 41.9983 13.568C41.9876 12.544 41.9663 11.536 41.9343 10.544C41.9129 9.88267 41.7796 9.408 41.5343 9.12C41.2889 8.82133 40.8889 8.672 40.3343 8.672C39.7796 8.672 39.2729 8.82133 38.8143 9.12C38.3663 9.408 38.0409 9.86133 37.8383 10.48V22.32C38.0409 22.928 38.3663 23.3813 38.8143 23.68C39.2729 23.9787 39.7796 24.128 40.3343 24.128ZM50.765 26.208C49.6343 26.208 48.797 25.8987 48.253 25.28C47.7197 24.6507 47.3997 23.6747 47.293 22.352C47.2823 22.096 47.2717 21.8293 47.261 21.552C47.261 21.2747 47.2663 21.0133 47.277 20.768C47.3303 19.9893 47.4743 19.3013 47.709 18.704C47.9437 18.096 48.317 17.5467 48.829 17.056C49.3517 16.5547 50.0557 16.0853 50.941 15.648C51.421 15.392 51.9117 15.1573 52.413 14.944C52.9143 14.72 53.4263 14.512 53.949 14.32V10.64C53.949 9.97867 53.821 9.49333 53.565 9.184C53.309 8.87467 52.845 8.72 52.173 8.72C51.5863 8.72 51.1543 8.85333 50.877 9.12C50.6103 9.376 50.461 9.856 50.429 10.56C50.4183 10.784 50.4077 11.0773 50.397 11.44C50.397 11.8027 50.397 12.176 50.397 12.56C50.4077 12.944 50.4183 13.2747 50.429 13.552H47.709C47.6983 13.2107 47.6877 12.7787 47.677 12.256C47.6663 11.7227 47.6663 11.248 47.677 10.832C47.7197 9.82933 47.8957 9.01333 48.205 8.384C48.5143 7.75467 48.9943 7.296 49.645 7.008C50.3063 6.70933 51.1757 6.56 52.253 6.56C53.3837 6.56 54.2743 6.72 54.925 7.04C55.5757 7.36 56.0343 7.86667 56.301 8.56C56.5783 9.24267 56.717 10.1333 56.717 11.232L56.701 26H53.917V24.192H53.501C53.2343 24.8533 52.893 25.3547 52.477 25.696C52.0717 26.0373 51.501 26.208 50.765 26.208ZM51.789 24.128C52.301 24.128 52.733 23.9787 53.085 23.68C53.4477 23.3813 53.7303 22.96 53.933 22.416V16.4C53.5597 16.528 53.181 16.6827 52.797 16.864C52.4237 17.0453 52.0183 17.2907 51.581 17.6C50.9837 17.9947 50.5837 18.4533 50.381 18.976C50.1783 19.4987 50.061 20.096 50.029 20.768C50.029 20.9707 50.029 21.1947 50.029 21.44C50.029 21.6747 50.0343 21.9093 50.045 22.144C50.0983 22.784 50.2743 23.2747 50.573 23.616C50.8823 23.9573 51.2877 24.128 51.789 24.128ZM64.3293 31.52C62.8359 31.52 61.6733 31.296 60.8413 30.848C60.0199 30.4 59.5506 29.7013 59.4333 28.752C59.4226 28.656 59.4119 28.5333 59.4013 28.384C59.3906 28.2347 59.3906 28.08 59.4013 27.92C59.4439 27.344 59.6519 26.8747 60.0253 26.512C60.3986 26.16 60.8573 25.9467 61.4013 25.872V25.392C60.8999 25.2533 60.5106 25.0453 60.2333 24.768C59.9559 24.4907 59.7959 24.1333 59.7533 23.696C59.7426 23.5893 59.7373 23.4827 59.7373 23.376C59.7373 23.2693 59.7426 23.1573 59.7533 23.04C59.7853 22.592 59.9666 22.2187 60.2973 21.92C60.6386 21.6213 61.0493 21.44 61.5293 21.376V20.896C60.8786 20.576 60.3933 20.1013 60.0733 19.472C59.7533 18.8427 59.5666 18.0267 59.5133 17.024C59.5026 16.416 59.4919 15.8773 59.4813 15.408C59.4706 14.928 59.4653 14.4693 59.4653 14.032C59.4653 13.584 59.4706 13.1147 59.4813 12.624C59.4919 12.1333 59.5026 11.5733 59.5133 10.944C59.5666 9.92 59.7533 9.088 60.0733 8.448C60.3933 7.79733 60.8946 7.32266 61.5773 7.024C62.2599 6.71467 63.1559 6.56 64.2653 6.56C65.3959 6.56 66.2919 6.71467 66.9533 7.024C67.6146 7.33333 68.1053 7.824 68.4253 8.496H68.9213C68.9746 7.92 69.1719 7.49333 69.5133 7.216C69.8546 6.93867 70.3453 6.8 70.9853 6.8V8.976H70.4733C70.0359 8.976 69.6893 9.14133 69.4333 9.472C69.1879 9.80267 69.0599 10.32 69.0493 11.024L69.0173 12.608C69.0279 13.0027 69.0333 13.376 69.0333 13.728C69.0333 14.0693 69.0333 14.4053 69.0333 14.736C69.0333 15.0667 69.0279 15.4187 69.0173 15.792C69.0173 16.1653 69.0066 16.576 68.9853 17.024C68.9319 18.0693 68.7399 18.9173 68.4093 19.568C68.0893 20.208 67.5933 20.672 66.9213 20.96C66.2493 21.248 65.3586 21.392 64.2493 21.392C63.3959 21.3813 62.7879 21.472 62.4253 21.664C62.0733 21.8453 61.8973 22.1493 61.8973 22.576V22.736C61.9079 22.992 61.9773 23.2 62.1053 23.36C62.2439 23.5093 62.4839 23.6213 62.8253 23.696C63.1773 23.7707 63.6839 23.8187 64.3453 23.84C66.0199 23.8827 67.2786 24.1547 68.1213 24.656C68.9639 25.1573 69.4493 25.9893 69.5773 27.152C69.5879 27.312 69.5933 27.472 69.5933 27.632C69.5933 27.8027 69.5879 27.984 69.5773 28.176C69.5133 28.9973 69.2626 29.648 68.8253 30.128C68.3879 30.6187 67.7906 30.9707 67.0333 31.184C66.2759 31.408 65.3746 31.52 64.3293 31.52ZM64.3933 29.472C64.9373 29.472 65.4119 29.424 65.8173 29.328C66.2226 29.2427 66.5373 29.0933 66.7613 28.88C66.9959 28.6667 67.1399 28.3733 67.1933 28C67.2146 27.8613 67.2199 27.728 67.2093 27.6C67.2093 27.4827 67.1986 27.3653 67.1773 27.248C67.1239 26.864 66.9799 26.576 66.7453 26.384C66.5213 26.192 66.2066 26.0587 65.8013 25.984C65.4066 25.9093 64.9373 25.8613 64.3933 25.84C63.5826 25.808 62.9586 25.8933 62.5213 26.096C62.0839 26.2987 61.8333 26.688 61.7693 27.264C61.7479 27.3813 61.7373 27.504 61.7373 27.632C61.7373 27.7707 61.7426 27.8933 61.7533 28C61.7959 28.3947 61.9239 28.6987 62.1373 28.912C62.3506 29.1253 62.6439 29.2693 63.0173 29.344C63.4013 29.4293 63.8599 29.472 64.3933 29.472ZM64.2493 19.232C64.9746 19.232 65.4759 19.088 65.7533 18.8C66.0413 18.512 66.2013 18.032 66.2333 17.36C66.2546 16.88 66.2706 16.3573 66.2812 15.792C66.3026 15.2267 66.3133 14.6453 66.3133 14.048C66.3133 13.4507 66.3026 12.8587 66.2812 12.272C66.2706 11.6853 66.2546 11.1307 66.2333 10.608C66.2013 9.91467 66.0359 9.42933 65.7373 9.152C65.4493 8.864 64.9533 8.72 64.2493 8.72C63.5453 8.72 63.0386 8.864 62.7293 9.152C62.4306 9.44 62.2706 9.936 62.2493 10.64C62.2279 11.248 62.2119 11.8507 62.2013 12.448C62.1906 13.0347 62.1853 13.6107 62.1853 14.176C62.1853 14.7413 62.1906 15.2853 62.2013 15.808C62.2119 16.3307 62.2279 16.832 62.2493 17.312C62.2813 17.9733 62.4413 18.4587 62.7293 18.768C63.0173 19.0773 63.5239 19.232 64.2493 19.232ZM76.9565 26.24C75.3245 26.24 74.1458 25.904 73.4205 25.232C72.6952 24.56 72.2952 23.4507 72.2205 21.904C72.1992 21.1573 72.1832 20.32 72.1725 19.392C72.1618 18.4533 72.1565 17.4773 72.1565 16.464C72.1565 15.4507 72.1618 14.4693 72.1725 13.52C72.1832 12.56 72.1992 11.7013 72.2205 10.944C72.3058 9.36533 72.7112 8.24 73.4365 7.568C74.1725 6.896 75.3352 6.56 76.9245 6.56C78.4818 6.56 79.6125 6.89067 80.3165 7.552C81.0205 8.21333 81.4098 9.30667 81.4845 10.832C81.4952 11.1413 81.5058 11.6107 81.5165 12.24C81.5272 12.8693 81.5272 13.5947 81.5165 14.416C81.5165 15.2267 81.4952 16.064 81.4525 16.928H74.9565C74.9565 17.76 74.9618 18.608 74.9725 19.472C74.9938 20.3253 75.0098 21.2213 75.0205 22.16C75.0418 22.8853 75.1965 23.3867 75.4845 23.664C75.7832 23.9413 76.2632 24.08 76.9245 24.08C77.5645 24.08 78.0178 23.9413 78.2845 23.664C78.5618 23.3867 78.7165 22.8853 78.7485 22.16C78.7698 21.808 78.7805 21.3813 78.7805 20.88C78.7805 20.368 78.7698 19.8027 78.7485 19.184H81.4525C81.4845 19.568 81.5005 20.016 81.5005 20.528C81.5112 21.04 81.5058 21.4987 81.4845 21.904C81.4098 23.4507 81.0312 24.56 80.3485 25.232C79.6765 25.904 78.5458 26.24 76.9565 26.24ZM74.9565 14.864H78.7805C78.7805 14.2667 78.7805 13.68 78.7805 13.104C78.7912 12.5173 78.7912 12 78.7805 11.552C78.7698 11.104 78.7592 10.7733 78.7485 10.56C78.7165 9.89867 78.5618 9.42933 78.2845 9.152C78.0072 8.864 77.5538 8.72 76.9245 8.72C76.2525 8.72 75.7725 8.864 75.4845 9.152C75.1965 9.42933 75.0418 9.89867 75.0205 10.56C75.0098 11.3387 74.9992 12.08 74.9885 12.784C74.9778 13.488 74.9672 14.1813 74.9565 14.864ZM88.9588 26.256C87.2521 26.256 86.0308 25.888 85.2948 25.152C84.5694 24.416 84.1908 23.1947 84.1588 21.488C84.1374 20.144 84.1214 18.7787 84.1108 17.392C84.1001 16.0053 84.0948 14.6133 84.0948 13.216C84.0948 11.808 84.1001 10.4107 84.1108 9.024C84.1214 7.62667 84.1374 6.256 84.1588 4.912C84.1908 3.376 84.5801 2.20267 85.3268 1.392C86.0734 0.581332 87.2788 0.175999 88.9428 0.175999C90.6068 0.175999 91.8121 0.543999 92.5588 1.28C93.3161 2.00533 93.7161 3.216 93.7588 4.912C93.7694 5.30667 93.7748 5.78667 93.7748 6.352C93.7748 6.91733 93.7694 7.48267 93.7588 8.048C93.7588 8.60267 93.7534 9.07733 93.7428 9.472H90.9427C90.9534 8.96 90.9641 8.416 90.9748 7.84C90.9854 7.264 90.9908 6.68267 90.9908 6.096C90.9908 5.50933 90.9854 4.96 90.9748 4.448C90.9641 3.76533 90.7934 3.26933 90.4628 2.96C90.1428 2.65067 89.6361 2.496 88.9428 2.496C88.2708 2.496 87.7748 2.65067 87.4548 2.96C87.1454 3.26933 86.9801 3.76533 86.9588 4.448C86.9268 5.92 86.9001 7.38667 86.8788 8.848C86.8681 10.2987 86.8628 11.7547 86.8628 13.216C86.8628 14.6667 86.8681 16.1227 86.8788 17.584C86.9001 19.0347 86.9268 20.4907 86.9588 21.952C86.9801 22.6453 87.1508 23.152 87.4708 23.472C87.7908 23.7813 88.2868 23.936 88.9588 23.936C89.6948 23.936 90.2334 23.7813 90.5748 23.472C90.9161 23.152 91.0921 22.6453 91.1028 21.952C91.1134 21.4187 91.1188 20.848 91.1188 20.24C91.1188 19.6213 91.1134 19.008 91.1028 18.4C91.1028 17.7813 91.0974 17.2053 91.0868 16.672H93.8708C93.9028 17.4827 93.9188 18.288 93.9188 19.088C93.9188 19.888 93.9081 20.688 93.8868 21.488C93.8441 23.1947 93.4388 24.416 92.6708 25.152C91.9134 25.888 90.6761 26.256 88.9588 26.256ZM99.6713 26.208C98.5406 26.208 97.7033 25.8987 97.1593 25.28C96.6259 24.6507 96.3059 23.6747 96.1993 22.352C96.1886 22.096 96.1779 21.8293 96.1673 21.552C96.1673 21.2747 96.1726 21.0133 96.1833 20.768C96.2366 19.9893 96.3806 19.3013 96.6153 18.704C96.8499 18.096 97.2233 17.5467 97.7353 17.056C98.2579 16.5547 98.9619 16.0853 99.8473 15.648C100.327 15.392 100.818 15.1573 101.319 14.944C101.821 14.72 102.333 14.512 102.855 14.32V10.64C102.855 9.97867 102.727 9.49333 102.471 9.184C102.215 8.87467 101.751 8.72 101.079 8.72C100.493 8.72 100.061 8.85333 99.7833 9.12C99.5166 9.376 99.3673 9.856 99.3353 10.56C99.3246 10.784 99.3139 11.0773 99.3033 11.44C99.3033 11.8027 99.3033 12.176 99.3033 12.56C99.3139 12.944 99.3246 13.2747 99.3353 13.552H96.6153C96.6046 13.2107 96.5939 12.7787 96.5833 12.256C96.5726 11.7227 96.5726 11.248 96.5833 10.832C96.6259 9.82933 96.8019 9.01333 97.1113 8.384C97.4206 7.75467 97.9006 7.296 98.5513 7.008C99.2126 6.70933 100.082 6.56 101.159 6.56C102.29 6.56 103.181 6.72 103.831 7.04C104.482 7.36 104.941 7.86667 105.207 8.56C105.485 9.24267 105.623 10.1333 105.623 11.232L105.607 26H102.823V24.192H102.407C102.141 24.8533 101.799 25.3547 101.383 25.696C100.978 26.0373 100.407 26.208 99.6713 26.208ZM100.695 24.128C101.207 24.128 101.639 23.9787 101.991 23.68C102.354 23.3813 102.637 22.96 102.839 22.416V16.4C102.466 16.528 102.087 16.6827 101.703 16.864C101.33 17.0453 100.925 17.2907 100.487 17.6C99.8899 17.9947 99.4899 18.4533 99.2873 18.976C99.0846 19.4987 98.9673 20.096 98.9353 20.768C98.9353 20.9707 98.9353 21.1947 98.9353 21.44C98.9353 21.6747 98.9406 21.9093 98.9513 22.144C99.0046 22.784 99.1806 23.2747 99.4793 23.616C99.7886 23.9573 100.194 24.128 100.695 24.128ZM108.836 26V6.8H111.62V8.608H112.18C112.51 7.94667 112.9 7.44 113.348 7.088C113.796 6.736 114.414 6.56 115.204 6.56C116.281 6.56 117.102 6.88533 117.668 7.536C118.244 8.176 118.532 9.248 118.532 10.752V26H115.748V10.544C115.737 9.88267 115.598 9.408 115.332 9.12C115.076 8.82133 114.67 8.672 114.116 8.672C113.593 8.672 113.097 8.832 112.628 9.152C112.158 9.46133 111.822 9.904 111.62 10.48V26H108.836Z" fill="#0C9700"/>
<path d="M10.656 37.228C10.86 37.336 10.974 37.498 10.998 37.714C11.034 37.93 10.98 38.128 10.836 38.308C10.728 38.464 10.59 38.548 10.422 38.56C10.254 38.572 10.086 38.536 9.918 38.452C9.522 38.212 9.096 38.026 8.64 37.894C8.184 37.75 7.704 37.678 7.2 37.678C6.492 37.678 5.844 37.804 5.256 38.056C4.668 38.296 4.158 38.638 3.726 39.082C3.294 39.526 2.958 40.054 2.718 40.666C2.478 41.278 2.358 41.956 2.358 42.7C2.358 43.492 2.484 44.2 2.736 44.824C2.988 45.448 3.33 45.982 3.762 46.426C4.206 46.858 4.716 47.188 5.292 47.416C5.88 47.644 6.516 47.758 7.2 47.758C7.692 47.758 8.166 47.692 8.622 47.56C9.078 47.428 9.51 47.236 9.918 46.984C10.086 46.9 10.254 46.87 10.422 46.894C10.59 46.918 10.734 47.002 10.854 47.146C10.998 47.338 11.052 47.542 11.016 47.758C10.98 47.962 10.866 48.112 10.674 48.208C10.374 48.388 10.032 48.556 9.648 48.712C9.264 48.856 8.862 48.97 8.442 49.054C8.034 49.138 7.62 49.18 7.2 49.18C6.336 49.18 5.52 49.03 4.752 48.73C3.984 48.43 3.306 47.998 2.718 47.434C2.13 46.87 1.662 46.192 1.314 45.4C0.978 44.596 0.81 43.696 0.81 42.7C0.81 41.764 0.972 40.906 1.296 40.126C1.62 39.346 2.07 38.668 2.646 38.092C3.234 37.516 3.912 37.066 4.68 36.742C5.46 36.418 6.3 36.256 7.2 36.256C7.824 36.256 8.43 36.34 9.018 36.508C9.618 36.676 10.164 36.916 10.656 37.228ZM17.4336 39.55C18.2256 39.55 18.8496 39.724 19.3056 40.072C19.7736 40.408 20.1036 40.864 20.2956 41.44C20.4996 42.004 20.6016 42.634 20.6016 43.33V48.262C20.6016 48.466 20.5296 48.64 20.3856 48.784C20.2536 48.928 20.0856 49 19.8816 49C19.6776 49 19.5036 48.928 19.3596 48.784C19.2276 48.64 19.1616 48.466 19.1616 48.262V43.33C19.1616 42.874 19.0956 42.466 18.9636 42.106C18.8316 41.734 18.6096 41.44 18.2976 41.224C17.9976 40.996 17.5836 40.882 17.0556 40.882C16.5636 40.882 16.1136 40.996 15.7056 41.224C15.2976 41.44 14.9736 41.734 14.7336 42.106C14.4936 42.466 14.3736 42.874 14.3736 43.33V48.262C14.3736 48.466 14.3016 48.64 14.1576 48.784C14.0256 48.928 13.8576 49 13.6536 49C13.4496 49 13.2756 48.928 13.1316 48.784C12.9996 48.64 12.9336 48.466 12.9336 48.262V36.4C12.9336 36.196 12.9996 36.028 13.1316 35.896C13.2756 35.752 13.4496 35.68 13.6536 35.68C13.8696 35.68 14.0436 35.752 14.1756 35.896C14.3076 36.028 14.3736 36.196 14.3736 36.4V41.782L14.0136 42.178C14.0736 41.866 14.2056 41.554 14.4096 41.242C14.6136 40.918 14.8716 40.63 15.1836 40.378C15.4956 40.126 15.8436 39.928 16.2276 39.784C16.6116 39.628 17.0136 39.55 17.4336 39.55ZM30.2355 39.694C30.4515 39.694 30.6255 39.766 30.7575 39.91C30.8895 40.042 30.9555 40.21 30.9555 40.414V45.328C30.9555 46.54 30.6135 47.482 29.9295 48.154C29.2575 48.814 28.3155 49.144 27.1035 49.144C25.9035 49.144 24.9615 48.814 24.2775 48.154C23.6055 47.482 23.2695 46.54 23.2695 45.328V40.414C23.2695 40.21 23.3355 40.042 23.4675 39.91C23.6115 39.766 23.7855 39.694 23.9895 39.694C24.2055 39.694 24.3795 39.766 24.5115 39.91C24.6435 40.042 24.7095 40.21 24.7095 40.414V45.328C24.7095 46.144 24.9195 46.762 25.3395 47.182C25.7595 47.602 26.3475 47.812 27.1035 47.812C27.8835 47.812 28.4775 47.602 28.8855 47.182C29.3055 46.762 29.5155 46.144 29.5155 45.328V40.414C29.5155 40.21 29.5815 40.042 29.7135 39.91C29.8575 39.766 30.0315 39.694 30.2355 39.694ZM38.249 39.46C39.065 39.46 39.707 39.628 40.175 39.964C40.643 40.3 40.973 40.75 41.165 41.314C41.369 41.878 41.471 42.508 41.471 43.204V48.262C41.471 48.466 41.399 48.64 41.255 48.784C41.123 48.928 40.955 49 40.751 49C40.547 49 40.373 48.928 40.229 48.784C40.097 48.64 40.031 48.466 40.031 48.262V43.24C40.031 42.784 39.959 42.376 39.815 42.016C39.683 41.644 39.455 41.35 39.131 41.134C38.819 40.906 38.387 40.792 37.835 40.792C37.331 40.792 36.869 40.906 36.449 41.134C36.029 41.35 35.693 41.644 35.441 42.016C35.189 42.376 35.063 42.784 35.063 43.24V48.262C35.063 48.466 34.991 48.64 34.847 48.784C34.715 48.928 34.547 49 34.343 49C34.139 49 33.965 48.928 33.821 48.784C33.689 48.64 33.623 48.466 33.623 48.262V40.414C33.623 40.21 33.689 40.042 33.821 39.91C33.965 39.766 34.139 39.694 34.343 39.694C34.559 39.694 34.733 39.766 34.865 39.91C34.997 40.042 35.063 40.21 35.063 40.414V41.692L34.703 42.088C34.763 41.776 34.901 41.464 35.117 41.152C35.333 40.828 35.603 40.54 35.927 40.288C36.251 40.036 36.611 39.838 37.007 39.694C37.403 39.538 37.817 39.46 38.249 39.46ZM48.0407 39.46C48.5567 39.46 49.0367 39.55 49.4807 39.73C49.9247 39.898 50.3087 40.12 50.6327 40.396C50.9687 40.672 51.2267 40.96 51.4067 41.26C51.5987 41.56 51.6947 41.842 51.6947 42.106L51.3527 41.89V40.324C51.3527 40.12 51.4187 39.952 51.5507 39.82C51.6827 39.676 51.8567 39.604 52.0727 39.604C52.2767 39.604 52.4447 39.676 52.5767 39.82C52.7207 39.952 52.7927 40.12 52.7927 40.324V48.208C52.7927 49.192 52.5827 50.008 52.1627 50.656C51.7547 51.304 51.2027 51.79 50.5067 52.114C49.8107 52.438 49.0307 52.6 48.1667 52.6C47.8067 52.6 47.4107 52.552 46.9787 52.456C46.5467 52.36 46.1627 52.24 45.8267 52.096C45.4907 51.964 45.2747 51.826 45.1787 51.682C44.9987 51.562 44.8847 51.424 44.8367 51.268C44.8007 51.124 44.8307 50.986 44.9267 50.854C45.0347 50.686 45.1727 50.602 45.3407 50.602C45.5207 50.602 45.7427 50.656 46.0067 50.764C46.1147 50.8 46.2827 50.86 46.5107 50.944C46.7507 51.028 47.0147 51.1 47.3027 51.16C47.6027 51.232 47.8967 51.268 48.1847 51.268C49.2047 51.268 49.9847 50.998 50.5247 50.458C51.0767 49.93 51.3527 49.228 51.3527 48.352V46.678L51.5507 46.768C51.4787 47.104 51.3287 47.416 51.1007 47.704C50.8847 47.992 50.6147 48.25 50.2907 48.478C49.9787 48.694 49.6307 48.868 49.2467 49C48.8627 49.12 48.4727 49.18 48.0767 49.18C47.2367 49.18 46.4807 48.97 45.8087 48.55C45.1367 48.13 44.6027 47.554 44.2067 46.822C43.8227 46.09 43.6307 45.256 43.6307 44.32C43.6307 43.372 43.8227 42.532 44.2067 41.8C44.6027 41.068 45.1307 40.498 45.7907 40.09C46.4627 39.67 47.2127 39.46 48.0407 39.46ZM48.2207 40.792C47.6087 40.792 47.0567 40.948 46.5647 41.26C46.0847 41.56 45.7067 41.974 45.4307 42.502C45.1667 43.03 45.0347 43.636 45.0347 44.32C45.0347 44.98 45.1667 45.58 45.4307 46.12C45.7067 46.648 46.0847 47.068 46.5647 47.38C47.0567 47.692 47.6087 47.848 48.2207 47.848C48.8447 47.848 49.3967 47.698 49.8767 47.398C50.3567 47.086 50.7347 46.666 51.0107 46.138C51.2867 45.61 51.4247 45.004 51.4247 44.32C51.4247 43.624 51.2867 43.012 51.0107 42.484C50.7347 41.956 50.3567 41.542 49.8767 41.242C49.3967 40.942 48.8447 40.792 48.2207 40.792ZM60.0521 39.748H64.2821C64.4741 39.748 64.6301 39.814 64.7501 39.946C64.8821 40.078 64.9481 40.234 64.9481 40.414C64.9481 40.606 64.8821 40.768 64.7501 40.9C64.6301 41.02 64.4741 41.08 64.2821 41.08H60.0521C59.8721 41.08 59.7161 41.014 59.5841 40.882C59.4521 40.75 59.3861 40.588 59.3861 40.396C59.3861 40.216 59.4521 40.066 59.5841 39.946C59.7161 39.814 59.8721 39.748 60.0521 39.748ZM61.9421 37.3C62.1461 37.3 62.3141 37.372 62.4461 37.516C62.5781 37.648 62.6441 37.816 62.6441 38.02V46.714C62.6441 47.002 62.6861 47.218 62.7701 47.362C62.8541 47.506 62.9621 47.608 63.0941 47.668C63.2381 47.716 63.3761 47.74 63.5081 47.74C63.6281 47.74 63.7301 47.722 63.8141 47.686C63.9101 47.638 64.0181 47.614 64.1381 47.614C64.2581 47.614 64.3661 47.674 64.4621 47.794C64.5701 47.902 64.6241 48.046 64.6241 48.226C64.6241 48.442 64.4981 48.628 64.2461 48.784C63.9941 48.928 63.7121 49 63.4001 49C63.2321 49 63.0221 48.988 62.7701 48.964C62.5301 48.94 62.2901 48.862 62.0501 48.73C61.8101 48.598 61.6061 48.382 61.4381 48.082C61.2821 47.77 61.2041 47.338 61.2041 46.786V38.02C61.2041 37.816 61.2761 37.648 61.4201 37.516C61.5641 37.372 61.7381 37.3 61.9421 37.3ZM74.6191 39.604C74.8231 39.604 74.9911 39.676 75.1231 39.82C75.2671 39.952 75.3391 40.12 75.3391 40.324V48.262C75.3391 48.466 75.2671 48.64 75.1231 48.784C74.9911 48.928 74.8231 49 74.6191 49C74.4031 49 74.2291 48.928 74.0971 48.784C73.9651 48.64 73.8991 48.466 73.8991 48.262V46.552L74.2411 46.516C74.2411 46.78 74.1511 47.068 73.9711 47.38C73.7911 47.692 73.5451 47.986 73.2331 48.262C72.9211 48.526 72.5491 48.748 72.1171 48.928C71.6971 49.096 71.2411 49.18 70.7491 49.18C69.9331 49.18 69.2011 48.97 68.5531 48.55C67.9051 48.118 67.3891 47.536 67.0051 46.804C66.6331 46.072 66.4471 45.238 66.4471 44.302C66.4471 43.354 66.6331 42.52 67.0051 41.8C67.3891 41.068 67.9051 40.498 68.5531 40.09C69.2011 39.67 69.9211 39.46 70.7131 39.46C71.2291 39.46 71.7091 39.544 72.1531 39.712C72.5971 39.88 72.9811 40.108 73.3051 40.396C73.6411 40.684 73.8991 41.002 74.0791 41.35C74.2711 41.698 74.3671 42.046 74.3671 42.394L73.8991 42.286V40.324C73.8991 40.12 73.9651 39.952 74.0971 39.82C74.2291 39.676 74.4031 39.604 74.6191 39.604ZM70.9111 47.848C71.5111 47.848 72.0391 47.692 72.4951 47.38C72.9631 47.068 73.3231 46.648 73.5751 46.12C73.8391 45.58 73.9711 44.974 73.9711 44.302C73.9711 43.642 73.8391 43.048 73.5751 42.52C73.3231 41.98 72.9631 41.56 72.4951 41.26C72.0391 40.948 71.5111 40.792 70.9111 40.792C70.3231 40.792 69.7951 40.942 69.3271 41.242C68.8711 41.542 68.5111 41.956 68.2471 42.484C67.9831 43.012 67.8511 43.618 67.8511 44.302C67.8511 44.974 67.9771 45.58 68.2291 46.12C68.4931 46.648 68.8531 47.068 69.3091 47.38C69.7771 47.692 70.3111 47.848 70.9111 47.848ZM84.9738 39.55C85.1778 39.55 85.3458 39.622 85.4778 39.766C85.6218 39.898 85.6938 40.066 85.6938 40.27V48.118C85.6938 49.126 85.4958 49.96 85.0998 50.62C84.7038 51.292 84.1698 51.79 83.4978 52.114C82.8378 52.438 82.0878 52.6 81.2478 52.6C80.7798 52.6 80.3298 52.552 79.8978 52.456C79.4658 52.36 79.1118 52.234 78.8358 52.078C78.6078 51.97 78.4458 51.832 78.3498 51.664C78.2658 51.508 78.2538 51.34 78.3138 51.16C78.3978 50.944 78.5178 50.794 78.6738 50.71C78.8418 50.626 79.0158 50.626 79.1958 50.71C79.3878 50.794 79.6638 50.908 80.0238 51.052C80.3958 51.208 80.8098 51.286 81.2658 51.286C81.8898 51.286 82.4238 51.166 82.8678 50.926C83.3118 50.686 83.6538 50.332 83.8938 49.864C84.1338 49.408 84.2538 48.838 84.2538 48.154V46.876L84.4698 47.326C84.2778 47.698 84.0198 48.022 83.6958 48.298C83.3718 48.574 82.9998 48.79 82.5798 48.946C82.1598 49.102 81.6978 49.18 81.1938 49.18C80.5098 49.18 79.9278 49.036 79.4478 48.748C78.9798 48.448 78.6198 48.04 78.3678 47.524C78.1278 46.996 78.0078 46.39 78.0078 45.706V40.27C78.0078 40.066 78.0738 39.898 78.2058 39.766C78.3498 39.622 78.5238 39.55 78.7278 39.55C78.9438 39.55 79.1178 39.622 79.2498 39.766C79.3818 39.898 79.4478 40.066 79.4478 40.27V45.382C79.4478 46.198 79.6278 46.816 79.9878 47.236C80.3478 47.644 80.9058 47.848 81.6618 47.848C82.1418 47.848 82.5738 47.74 82.9578 47.524C83.3538 47.308 83.6658 47.014 83.8938 46.642C84.1338 46.258 84.2538 45.838 84.2538 45.382V40.27C84.2538 40.066 84.3198 39.898 84.4518 39.766C84.5838 39.622 84.7578 39.55 84.9738 39.55ZM93.3183 39.532C93.4623 39.532 93.6003 39.574 93.7323 39.658C93.8643 39.73 93.9603 39.838 94.0203 39.982L97.0083 47.002L96.7203 47.146L99.7623 40C99.8943 39.676 100.116 39.52 100.428 39.532C100.608 39.532 100.764 39.592 100.896 39.712C101.028 39.832 101.094 39.982 101.094 40.162C101.094 40.234 101.082 40.306 101.058 40.378C101.046 40.438 101.028 40.492 101.004 40.54L97.5303 48.532C97.3983 48.832 97.1883 48.988 96.9003 49C96.7443 49.012 96.5943 48.982 96.4503 48.91C96.3183 48.826 96.2223 48.7 96.1623 48.532L92.6883 40.558C92.6643 40.51 92.6403 40.456 92.6163 40.396C92.6043 40.336 92.5983 40.264 92.5983 40.18C92.5983 40.024 92.6583 39.88 92.7783 39.748C92.9103 39.604 93.0903 39.532 93.3183 39.532ZM104.425 48.262C104.425 48.466 104.353 48.64 104.209 48.784C104.077 48.928 103.909 49 103.705 49C103.489 49 103.315 48.928 103.183 48.784C103.051 48.64 102.985 48.466 102.985 48.262V40.27C102.985 40.066 103.051 39.898 103.183 39.766C103.327 39.622 103.501 39.55 103.705 39.55C103.909 39.55 104.077 39.622 104.209 39.766C104.353 39.898 104.425 40.066 104.425 40.27V48.262ZM103.741 38.884C103.669 38.884 103.591 38.866 103.507 38.83C103.435 38.782 103.363 38.734 103.291 38.686L101.761 37.498C101.629 37.414 101.533 37.324 101.473 37.228C101.401 37.12 101.365 37 101.365 36.868C101.365 36.664 101.437 36.508 101.581 36.4C101.725 36.28 101.875 36.22 102.031 36.22C102.187 36.22 102.319 36.256 102.427 36.328C102.535 36.4 102.631 36.478 102.715 36.562L104.047 38.092C104.155 38.212 104.209 38.332 104.209 38.452C104.209 38.572 104.167 38.674 104.083 38.758C103.999 38.842 103.885 38.884 103.741 38.884ZM116.415 39.55C117.231 39.55 117.891 39.76 118.395 40.18C118.911 40.588 119.253 41.17 119.421 41.926H119.151L119.277 41.602C119.421 41.266 119.667 40.942 120.015 40.63C120.363 40.318 120.765 40.06 121.221 39.856C121.677 39.652 122.151 39.55 122.643 39.55C123.435 39.55 124.059 39.724 124.515 40.072C124.971 40.408 125.295 40.864 125.487 41.44C125.691 42.004 125.793 42.64 125.793 43.348V48.262C125.793 48.466 125.721 48.64 125.577 48.784C125.445 48.928 125.277 49 125.073 49C124.857 49 124.683 48.928 124.551 48.784C124.419 48.64 124.353 48.466 124.353 48.262V43.384C124.353 42.916 124.281 42.496 124.137 42.124C124.005 41.74 123.783 41.44 123.471 41.224C123.171 40.996 122.757 40.882 122.229 40.882C121.737 40.882 121.287 40.996 120.879 41.224C120.471 41.44 120.147 41.74 119.907 42.124C119.667 42.496 119.547 42.916 119.547 43.384V48.262C119.547 48.466 119.481 48.64 119.349 48.784C119.217 48.928 119.043 49 118.827 49C118.623 49 118.449 48.928 118.305 48.784C118.173 48.64 118.107 48.466 118.107 48.262V43.33C118.107 42.874 118.041 42.466 117.909 42.106C117.789 41.734 117.579 41.44 117.279 41.224C116.979 40.996 116.565 40.882 116.037 40.882C115.557 40.882 115.119 40.996 114.723 41.224C114.327 41.44 114.009 41.734 113.769 42.106C113.529 42.466 113.409 42.874 113.409 43.33V48.262C113.409 48.466 113.337 48.64 113.193 48.784C113.061 48.928 112.893 49 112.689 49C112.485 49 112.311 48.928 112.167 48.784C112.035 48.64 111.969 48.466 111.969 48.262V40.414C111.969 40.21 112.035 40.042 112.167 39.91C112.311 39.766 112.485 39.694 112.689 39.694C112.905 39.694 113.079 39.766 113.211 39.91C113.343 40.042 113.409 40.21 113.409 40.414V41.782L113.013 42.214C113.061 41.902 113.181 41.59 113.373 41.278C113.577 40.966 113.835 40.678 114.147 40.414C114.459 40.15 114.807 39.94 115.191 39.784C115.575 39.628 115.983 39.55 116.415 39.55ZM137.295 44.32C137.295 45.256 137.085 46.09 136.665 46.822C136.257 47.554 135.699 48.13 134.991 48.55C134.295 48.97 133.509 49.18 132.633 49.18C131.757 49.18 130.965 48.97 130.257 48.55C129.549 48.13 128.985 47.554 128.565 46.822C128.157 46.09 127.953 45.256 127.953 44.32C127.953 43.384 128.157 42.55 128.565 41.818C128.985 41.086 129.549 40.51 130.257 40.09C130.965 39.67 131.757 39.46 132.633 39.46C133.509 39.46 134.295 39.67 134.991 40.09C135.699 40.51 136.257 41.086 136.665 41.818C137.085 42.55 137.295 43.384 137.295 44.32ZM135.855 44.32C135.855 43.624 135.711 43.012 135.423 42.484C135.147 41.956 134.763 41.542 134.271 41.242C133.791 40.942 133.245 40.792 132.633 40.792C132.021 40.792 131.469 40.942 130.977 41.242C130.497 41.542 130.113 41.956 129.825 42.484C129.537 43.012 129.393 43.624 129.393 44.32C129.393 45.004 129.537 45.61 129.825 46.138C130.113 46.666 130.497 47.086 130.977 47.398C131.469 47.698 132.021 47.848 132.633 47.848C133.245 47.848 133.791 47.698 134.271 47.398C134.763 47.086 135.147 46.666 135.423 46.138C135.711 45.61 135.855 45.004 135.855 44.32ZM132.615 51.754C132.327 51.754 132.111 51.694 131.967 51.574C131.823 51.454 131.751 51.268 131.751 51.016V50.764C131.751 50.512 131.829 50.326 131.985 50.206C132.141 50.086 132.357 50.026 132.633 50.026C132.933 50.026 133.155 50.086 133.299 50.206C133.443 50.326 133.515 50.512 133.515 50.764V51.016C133.515 51.268 133.437 51.454 133.281 51.574C133.137 51.694 132.915 51.754 132.615 51.754ZM132.903 36.832L131.391 38.092C131.283 38.188 131.187 38.266 131.103 38.326C131.031 38.374 130.923 38.398 130.779 38.398C130.671 38.398 130.581 38.368 130.509 38.308C130.437 38.236 130.401 38.158 130.401 38.074C130.401 38.002 130.413 37.942 130.437 37.894C130.461 37.834 130.503 37.762 130.563 37.678L131.733 36.346C131.925 36.106 132.183 35.986 132.507 35.986H132.921C133.089 35.986 133.221 36.01 133.317 36.058C133.425 36.106 133.527 36.202 133.623 36.346L134.739 37.678C134.811 37.75 134.853 37.816 134.865 37.876C134.889 37.936 134.901 37.996 134.901 38.056C134.901 38.14 134.865 38.218 134.793 38.29C134.733 38.362 134.643 38.398 134.523 38.398C134.391 38.398 134.283 38.368 134.199 38.308C134.127 38.248 134.031 38.176 133.911 38.092L132.345 36.778L132.903 36.832ZM139.101 39.748H143.331C143.523 39.748 143.679 39.814 143.799 39.946C143.931 40.078 143.997 40.234 143.997 40.414C143.997 40.606 143.931 40.768 143.799 40.9C143.679 41.02 143.523 41.08 143.331 41.08H139.101C138.921 41.08 138.765 41.014 138.633 40.882C138.501 40.75 138.435 40.588 138.435 40.396C138.435 40.216 138.501 40.066 138.633 39.946C138.765 39.814 138.921 39.748 139.101 39.748ZM140.991 37.3C141.195 37.3 141.363 37.372 141.495 37.516C141.627 37.648 141.693 37.816 141.693 38.02V46.714C141.693 47.002 141.735 47.218 141.819 47.362C141.903 47.506 142.011 47.608 142.143 47.668C142.287 47.716 142.425 47.74 142.557 47.74C142.677 47.74 142.779 47.722 142.863 47.686C142.959 47.638 143.067 47.614 143.187 47.614C143.307 47.614 143.415 47.674 143.511 47.794C143.619 47.902 143.673 48.046 143.673 48.226C143.673 48.442 143.547 48.628 143.295 48.784C143.043 48.928 142.761 49 142.449 49C142.281 49 142.071 48.988 141.819 48.964C141.579 48.94 141.339 48.862 141.099 48.73C140.859 48.598 140.655 48.382 140.487 48.082C140.331 47.77 140.253 47.338 140.253 46.786V38.02C140.253 37.816 140.325 37.648 140.469 37.516C140.613 37.372 140.787 37.3 140.991 37.3ZM155.403 39.55C156.219 39.55 156.879 39.76 157.383 40.18C157.899 40.588 158.241 41.17 158.409 41.926H158.139L158.265 41.602C158.409 41.266 158.655 40.942 159.003 40.63C159.351 40.318 159.753 40.06 160.209 39.856C160.665 39.652 161.139 39.55 161.631 39.55C162.423 39.55 163.047 39.724 163.503 40.072C163.959 40.408 164.283 40.864 164.475 41.44C164.679 42.004 164.781 42.64 164.781 43.348V48.262C164.781 48.466 164.709 48.64 164.565 48.784C164.433 48.928 164.265 49 164.061 49C163.845 49 163.671 48.928 163.539 48.784C163.407 48.64 163.341 48.466 163.341 48.262V43.384C163.341 42.916 163.269 42.496 163.125 42.124C162.993 41.74 162.771 41.44 162.459 41.224C162.159 40.996 161.745 40.882 161.217 40.882C160.725 40.882 160.275 40.996 159.867 41.224C159.459 41.44 159.135 41.74 158.895 42.124C158.655 42.496 158.535 42.916 158.535 43.384V48.262C158.535 48.466 158.469 48.64 158.337 48.784C158.205 48.928 158.031 49 157.815 49C157.611 49 157.437 48.928 157.293 48.784C157.161 48.64 157.095 48.466 157.095 48.262V43.33C157.095 42.874 157.029 42.466 156.897 42.106C156.777 41.734 156.567 41.44 156.267 41.224C155.967 40.996 155.553 40.882 155.025 40.882C154.545 40.882 154.107 40.996 153.711 41.224C153.315 41.44 152.997 41.734 152.757 42.106C152.517 42.466 152.397 42.874 152.397 43.33V48.262C152.397 48.466 152.325 48.64 152.181 48.784C152.049 48.928 151.881 49 151.677 49C151.473 49 151.299 48.928 151.155 48.784C151.023 48.64 150.957 48.466 150.957 48.262V40.414C150.957 40.21 151.023 40.042 151.155 39.91C151.299 39.766 151.473 39.694 151.677 39.694C151.893 39.694 152.067 39.766 152.199 39.91C152.331 40.042 152.397 40.21 152.397 40.414V41.782L152.001 42.214C152.049 41.902 152.169 41.59 152.361 41.278C152.565 40.966 152.823 40.678 153.135 40.414C153.447 40.15 153.795 39.94 154.179 39.784C154.563 39.628 154.971 39.55 155.403 39.55ZM176.283 44.32C176.283 45.256 176.073 46.09 175.653 46.822C175.245 47.554 174.687 48.13 173.979 48.55C173.283 48.97 172.497 49.18 171.621 49.18C170.745 49.18 169.953 48.97 169.245 48.55C168.537 48.13 167.973 47.554 167.553 46.822C167.145 46.09 166.941 45.256 166.941 44.32C166.941 43.384 167.145 42.55 167.553 41.818C167.973 41.086 168.537 40.51 169.245 40.09C169.953 39.67 170.745 39.46 171.621 39.46C172.497 39.46 173.283 39.67 173.979 40.09C174.687 40.51 175.245 41.086 175.653 41.818C176.073 42.55 176.283 43.384 176.283 44.32ZM174.843 44.32C174.843 43.624 174.699 43.012 174.411 42.484C174.135 41.956 173.751 41.542 173.259 41.242C172.779 40.942 172.233 40.792 171.621 40.792C171.009 40.792 170.457 40.942 169.965 41.242C169.485 41.542 169.101 41.956 168.813 42.484C168.525 43.012 168.381 43.624 168.381 44.32C168.381 45.004 168.525 45.61 168.813 46.138C169.101 46.666 169.485 47.086 169.965 47.398C170.457 47.698 171.009 47.848 171.621 47.848C172.233 47.848 172.779 47.698 173.259 47.398C173.751 47.086 174.135 46.666 174.411 46.138C174.699 45.61 174.843 45.004 174.843 44.32ZM171.891 36.832L170.379 38.092C170.271 38.188 170.175 38.266 170.091 38.326C170.019 38.374 169.911 38.398 169.767 38.398C169.659 38.398 169.569 38.368 169.497 38.308C169.425 38.236 169.389 38.158 169.389 38.074C169.389 38.002 169.401 37.942 169.425 37.894C169.449 37.834 169.491 37.762 169.551 37.678L170.721 36.346C170.913 36.106 171.171 35.986 171.495 35.986H171.909C172.077 35.986 172.209 36.01 172.305 36.058C172.413 36.106 172.515 36.202 172.611 36.346L173.727 37.678C173.799 37.75 173.841 37.816 173.853 37.876C173.877 37.936 173.889 37.996 173.889 38.056C173.889 38.14 173.853 38.218 173.781 38.29C173.721 38.362 173.631 38.398 173.511 38.398C173.379 38.398 173.271 38.368 173.187 38.308C173.115 38.248 173.019 38.176 172.899 38.092L171.333 36.778L171.891 36.832ZM179.835 48.262C179.835 48.466 179.763 48.64 179.619 48.784C179.487 48.928 179.319 49 179.115 49C178.899 49 178.725 48.928 178.593 48.784C178.461 48.64 178.395 48.466 178.395 48.262V40.27C178.395 40.066 178.461 39.898 178.593 39.766C178.737 39.622 178.911 39.55 179.115 39.55C179.319 39.55 179.487 39.622 179.619 39.766C179.763 39.898 179.835 40.066 179.835 40.27V48.262ZM179.115 38.344C178.815 38.344 178.593 38.284 178.449 38.164C178.305 38.044 178.233 37.858 178.233 37.606V37.354C178.233 37.102 178.311 36.916 178.467 36.796C178.623 36.676 178.845 36.616 179.133 36.616C179.421 36.616 179.637 36.676 179.781 36.796C179.925 36.916 179.997 37.102 179.997 37.354V37.606C179.997 37.858 179.919 38.044 179.763 38.164C179.619 38.284 179.403 38.344 179.115 38.344ZM187.019 39.748H191.249C191.441 39.748 191.597 39.814 191.717 39.946C191.849 40.078 191.915 40.234 191.915 40.414C191.915 40.606 191.849 40.768 191.717 40.9C191.597 41.02 191.441 41.08 191.249 41.08H187.019C186.839 41.08 186.683 41.014 186.551 40.882C186.419 40.75 186.353 40.588 186.353 40.396C186.353 40.216 186.419 40.066 186.551 39.946C186.683 39.814 186.839 39.748 187.019 39.748ZM188.909 37.3C189.113 37.3 189.281 37.372 189.413 37.516C189.545 37.648 189.611 37.816 189.611 38.02V46.714C189.611 47.002 189.653 47.218 189.737 47.362C189.821 47.506 189.929 47.608 190.061 47.668C190.205 47.716 190.343 47.74 190.475 47.74C190.595 47.74 190.697 47.722 190.781 47.686C190.877 47.638 190.985 47.614 191.105 47.614C191.225 47.614 191.333 47.674 191.429 47.794C191.537 47.902 191.591 48.046 191.591 48.226C191.591 48.442 191.465 48.628 191.213 48.784C190.961 48.928 190.679 49 190.367 49C190.199 49 189.989 48.988 189.737 48.964C189.497 48.94 189.257 48.862 189.017 48.73C188.777 48.598 188.573 48.382 188.405 48.082C188.249 47.77 188.171 47.338 188.171 46.786V38.02C188.171 37.816 188.243 37.648 188.387 37.516C188.531 37.372 188.705 37.3 188.909 37.3ZM194.638 49C194.434 49 194.26 48.928 194.116 48.784C193.984 48.64 193.918 48.466 193.918 48.262V40.414C193.918 40.21 193.984 40.042 194.116 39.91C194.26 39.766 194.434 39.694 194.638 39.694C194.854 39.694 195.028 39.766 195.16 39.91C195.292 40.042 195.358 40.21 195.358 40.414V42.79L195.142 42.412C195.214 42.04 195.34 41.68 195.52 41.332C195.712 40.972 195.952 40.654 196.24 40.378C196.528 40.09 196.858 39.868 197.23 39.712C197.602 39.544 198.01 39.46 198.454 39.46C198.718 39.46 198.958 39.526 199.174 39.658C199.402 39.778 199.516 39.952 199.516 40.18C199.516 40.432 199.45 40.618 199.318 40.738C199.186 40.858 199.036 40.918 198.868 40.918C198.712 40.918 198.562 40.888 198.418 40.828C198.274 40.756 198.094 40.72 197.878 40.72C197.578 40.72 197.278 40.804 196.978 40.972C196.69 41.128 196.42 41.356 196.168 41.656C195.928 41.956 195.73 42.298 195.574 42.682C195.43 43.054 195.358 43.456 195.358 43.888V48.262C195.358 48.466 195.286 48.64 195.142 48.784C195.01 48.928 194.842 49 194.638 49ZM208.109 39.694C208.325 39.694 208.499 39.766 208.631 39.91C208.763 40.042 208.829 40.21 208.829 40.414V45.328C208.829 46.54 208.487 47.482 207.803 48.154C207.131 48.814 206.189 49.144 204.977 49.144C203.777 49.144 202.835 48.814 202.151 48.154C201.479 47.482 201.143 46.54 201.143 45.328V40.414C201.143 40.21 201.209 40.042 201.341 39.91C201.485 39.766 201.659 39.694 201.863 39.694C202.079 39.694 202.253 39.766 202.385 39.91C202.517 40.042 202.583 40.21 202.583 40.414V45.328C202.583 46.144 202.793 46.762 203.213 47.182C203.633 47.602 204.221 47.812 204.977 47.812C205.757 47.812 206.351 47.602 206.759 47.182C207.179 46.762 207.389 46.144 207.389 45.328V40.414C207.389 40.21 207.455 40.042 207.587 39.91C207.731 39.766 207.905 39.694 208.109 39.694ZM207.983 40.936V39.694C208.523 39.694 208.931 39.592 209.207 39.388C209.483 39.184 209.621 38.854 209.621 38.398C209.621 38.218 209.669 38.05 209.765 37.894C209.873 37.726 210.035 37.642 210.251 37.642C210.491 37.642 210.647 37.732 210.719 37.912C210.803 38.08 210.845 38.242 210.845 38.398C210.845 38.878 210.737 39.31 210.521 39.694C210.305 40.078 209.987 40.384 209.567 40.612C209.147 40.828 208.619 40.936 207.983 40.936ZM220.334 44.32C220.334 45.256 220.124 46.09 219.704 46.822C219.296 47.554 218.738 48.13 218.03 48.55C217.334 48.97 216.548 49.18 215.672 49.18C214.796 49.18 214.004 48.97 213.296 48.55C212.588 48.13 212.024 47.554 211.604 46.822C211.196 46.09 210.992 45.256 210.992 44.32C210.992 43.384 211.196 42.55 211.604 41.818C212.024 41.086 212.588 40.51 213.296 40.09C214.004 39.67 214.796 39.46 215.672 39.46C216.548 39.46 217.334 39.67 218.03 40.09C218.738 40.51 219.296 41.086 219.704 41.818C220.124 42.55 220.334 43.384 220.334 44.32ZM218.894 44.32C218.894 43.624 218.75 43.012 218.462 42.484C218.186 41.956 217.802 41.542 217.31 41.242C216.83 40.942 216.284 40.792 215.672 40.792C215.06 40.792 214.508 40.942 214.016 41.242C213.536 41.542 213.152 41.956 212.864 42.484C212.576 43.012 212.432 43.624 212.432 44.32C212.432 45.004 212.576 45.61 212.864 46.138C213.152 46.666 213.536 47.086 214.016 47.398C214.508 47.698 215.06 47.848 215.672 47.848C216.284 47.848 216.83 47.698 217.31 47.398C217.802 47.086 218.186 46.666 218.462 46.138C218.75 45.61 218.894 45.004 218.894 44.32ZM217.274 40.954V39.712C217.814 39.712 218.222 39.61 218.498 39.406C218.774 39.202 218.912 38.872 218.912 38.416C218.912 38.236 218.96 38.068 219.056 37.912C219.164 37.744 219.326 37.66 219.542 37.66C219.782 37.66 219.938 37.75 220.01 37.93C220.094 38.098 220.136 38.26 220.136 38.416C220.136 38.896 220.028 39.328 219.812 39.712C219.596 40.096 219.278 40.402 218.858 40.63C218.438 40.846 217.91 40.954 217.274 40.954ZM215.618 38.884C215.546 38.884 215.468 38.866 215.384 38.83C215.312 38.782 215.24 38.734 215.168 38.686L213.638 37.498C213.506 37.414 213.404 37.324 213.332 37.228C213.272 37.12 213.242 37 213.242 36.868C213.242 36.664 213.314 36.508 213.458 36.4C213.602 36.28 213.752 36.22 213.908 36.22C214.064 36.22 214.196 36.256 214.304 36.328C214.412 36.4 214.508 36.478 214.592 36.562L215.924 38.092C216.032 38.212 216.086 38.332 216.086 38.452C216.086 38.572 216.044 38.674 215.96 38.758C215.876 38.842 215.762 38.884 215.618 38.884ZM227.126 39.46C227.942 39.46 228.584 39.628 229.052 39.964C229.52 40.3 229.85 40.75 230.042 41.314C230.246 41.878 230.348 42.508 230.348 43.204V48.262C230.348 48.466 230.276 48.64 230.132 48.784C230 48.928 229.832 49 229.628 49C229.424 49 229.25 48.928 229.106 48.784C228.974 48.64 228.908 48.466 228.908 48.262V43.24C228.908 42.784 228.836 42.376 228.692 42.016C228.56 41.644 228.332 41.35 228.008 41.134C227.696 40.906 227.264 40.792 226.712 40.792C226.208 40.792 225.746 40.906 225.326 41.134C224.906 41.35 224.57 41.644 224.318 42.016C224.066 42.376 223.94 42.784 223.94 43.24V48.262C223.94 48.466 223.868 48.64 223.724 48.784C223.592 48.928 223.424 49 223.22 49C223.016 49 222.842 48.928 222.698 48.784C222.566 48.64 222.5 48.466 222.5 48.262V40.414C222.5 40.21 222.566 40.042 222.698 39.91C222.842 39.766 223.016 39.694 223.22 39.694C223.436 39.694 223.61 39.766 223.742 39.91C223.874 40.042 223.94 40.21 223.94 40.414V41.692L223.58 42.088C223.64 41.776 223.778 41.464 223.994 41.152C224.21 40.828 224.48 40.54 224.804 40.288C225.128 40.036 225.488 39.838 225.884 39.694C226.28 39.538 226.694 39.46 227.126 39.46ZM236.918 39.46C237.434 39.46 237.914 39.55 238.358 39.73C238.802 39.898 239.186 40.12 239.51 40.396C239.846 40.672 240.104 40.96 240.284 41.26C240.476 41.56 240.572 41.842 240.572 42.106L240.23 41.89V40.324C240.23 40.12 240.296 39.952 240.428 39.82C240.56 39.676 240.734 39.604 240.95 39.604C241.154 39.604 241.322 39.676 241.454 39.82C241.598 39.952 241.67 40.12 241.67 40.324V48.208C241.67 49.192 241.46 50.008 241.04 50.656C240.632 51.304 240.08 51.79 239.384 52.114C238.688 52.438 237.908 52.6 237.044 52.6C236.684 52.6 236.288 52.552 235.856 52.456C235.424 52.36 235.04 52.24 234.704 52.096C234.368 51.964 234.152 51.826 234.056 51.682C233.876 51.562 233.762 51.424 233.714 51.268C233.678 51.124 233.708 50.986 233.804 50.854C233.912 50.686 234.05 50.602 234.218 50.602C234.398 50.602 234.62 50.656 234.884 50.764C234.992 50.8 235.16 50.86 235.388 50.944C235.628 51.028 235.892 51.1 236.18 51.16C236.48 51.232 236.774 51.268 237.062 51.268C238.082 51.268 238.862 50.998 239.402 50.458C239.954 49.93 240.23 49.228 240.23 48.352V46.678L240.428 46.768C240.356 47.104 240.206 47.416 239.978 47.704C239.762 47.992 239.492 48.25 239.168 48.478C238.856 48.694 238.508 48.868 238.124 49C237.74 49.12 237.35 49.18 236.954 49.18C236.114 49.18 235.358 48.97 234.686 48.55C234.014 48.13 233.48 47.554 233.084 46.822C232.7 46.09 232.508 45.256 232.508 44.32C232.508 43.372 232.7 42.532 233.084 41.8C233.48 41.068 234.008 40.498 234.668 40.09C235.34 39.67 236.09 39.46 236.918 39.46ZM237.098 40.792C236.486 40.792 235.934 40.948 235.442 41.26C234.962 41.56 234.584 41.974 234.308 42.502C234.044 43.03 233.912 43.636 233.912 44.32C233.912 44.98 234.044 45.58 234.308 46.12C234.584 46.648 234.962 47.068 235.442 47.38C235.934 47.692 236.486 47.848 237.098 47.848C237.722 47.848 238.274 47.698 238.754 47.398C239.234 47.086 239.612 46.666 239.888 46.138C240.164 45.61 240.302 45.004 240.302 44.32C240.302 43.624 240.164 43.012 239.888 42.484C239.612 41.956 239.234 41.542 238.754 41.242C238.274 40.942 237.722 40.792 237.098 40.792ZM248.767 47.524C248.659 47.368 248.611 47.206 248.623 47.038C248.635 46.858 248.737 46.702 248.929 46.57C249.049 46.486 249.187 46.45 249.343 46.462C249.511 46.474 249.661 46.552 249.793 46.696C250.129 47.092 250.513 47.41 250.945 47.65C251.377 47.878 251.905 47.992 252.529 47.992C252.817 47.98 253.105 47.932 253.393 47.848C253.681 47.764 253.921 47.62 254.113 47.416C254.317 47.2 254.419 46.918 254.419 46.57C254.419 46.234 254.317 45.97 254.113 45.778C253.909 45.574 253.645 45.412 253.321 45.292C252.997 45.16 252.643 45.046 252.259 44.95C251.863 44.842 251.473 44.722 251.089 44.59C250.705 44.446 250.357 44.272 250.045 44.068C249.745 43.852 249.499 43.588 249.307 43.276C249.127 42.952 249.037 42.562 249.037 42.106C249.037 41.566 249.181 41.098 249.469 40.702C249.769 40.306 250.165 40 250.657 39.784C251.161 39.568 251.707 39.46 252.295 39.46C252.631 39.46 252.979 39.502 253.339 39.586C253.711 39.658 254.071 39.79 254.419 39.982C254.767 40.162 255.073 40.414 255.337 40.738C255.445 40.858 255.505 41.008 255.517 41.188C255.529 41.368 255.451 41.53 255.283 41.674C255.151 41.77 255.001 41.812 254.833 41.8C254.677 41.788 254.545 41.728 254.437 41.62C254.185 41.32 253.867 41.092 253.483 40.936C253.111 40.768 252.697 40.684 252.241 40.684C251.953 40.684 251.671 40.726 251.395 40.81C251.119 40.894 250.885 41.038 250.693 41.242C250.513 41.434 250.423 41.704 250.423 42.052C250.435 42.376 250.543 42.64 250.747 42.844C250.951 43.048 251.227 43.216 251.575 43.348C251.923 43.468 252.307 43.588 252.727 43.708C253.111 43.804 253.477 43.918 253.825 44.05C254.185 44.17 254.509 44.332 254.797 44.536C255.085 44.74 255.313 45.004 255.481 45.328C255.649 45.64 255.733 46.036 255.733 46.516C255.733 47.068 255.577 47.548 255.265 47.956C254.953 48.352 254.539 48.658 254.023 48.874C253.519 49.078 252.973 49.18 252.385 49.18C251.725 49.18 251.071 49.054 250.423 48.802C249.787 48.55 249.235 48.124 248.767 47.524ZM265.623 39.604C265.827 39.604 265.995 39.676 266.127 39.82C266.271 39.952 266.343 40.12 266.343 40.324V48.262C266.343 48.466 266.271 48.64 266.127 48.784C265.995 48.928 265.827 49 265.623 49C265.407 49 265.233 48.928 265.101 48.784C264.969 48.64 264.903 48.466 264.903 48.262V46.552L265.245 46.516C265.245 46.78 265.155 47.068 264.975 47.38C264.795 47.692 264.549 47.986 264.237 48.262C263.925 48.526 263.553 48.748 263.121 48.928C262.701 49.096 262.245 49.18 261.753 49.18C260.937 49.18 260.205 48.97 259.557 48.55C258.909 48.118 258.393 47.536 258.009 46.804C257.637 46.072 257.451 45.238 257.451 44.302C257.451 43.354 257.637 42.52 258.009 41.8C258.393 41.068 258.909 40.498 259.557 40.09C260.205 39.67 260.925 39.46 261.717 39.46C262.233 39.46 262.713 39.544 263.157 39.712C263.601 39.88 263.985 40.108 264.309 40.396C264.645 40.684 264.903 41.002 265.083 41.35C265.275 41.698 265.371 42.046 265.371 42.394L264.903 42.286V40.324C264.903 40.12 264.969 39.952 265.101 39.82C265.233 39.676 265.407 39.604 265.623 39.604ZM261.915 47.848C262.515 47.848 263.043 47.692 263.499 47.38C263.967 47.068 264.327 46.648 264.579 46.12C264.843 45.58 264.975 44.974 264.975 44.302C264.975 43.642 264.843 43.048 264.579 42.52C264.327 41.98 263.967 41.56 263.499 41.26C263.043 40.948 262.515 40.792 261.915 40.792C261.327 40.792 260.799 40.942 260.331 41.242C259.875 41.542 259.515 41.956 259.251 42.484C258.987 43.012 258.855 43.618 258.855 44.302C258.855 44.974 258.981 45.58 259.233 46.12C259.497 46.648 259.857 47.068 260.313 47.38C260.781 47.692 261.315 47.848 261.915 47.848ZM262.005 51.754C261.717 51.754 261.501 51.694 261.357 51.574C261.213 51.454 261.141 51.268 261.141 51.016V50.764C261.141 50.512 261.219 50.326 261.375 50.206C261.531 50.086 261.747 50.026 262.023 50.026C262.323 50.026 262.545 50.086 262.689 50.206C262.833 50.326 262.905 50.512 262.905 50.764V51.016C262.905 51.268 262.827 51.454 262.671 51.574C262.527 51.694 262.305 51.754 262.005 51.754ZM273.152 39.46C273.764 39.46 274.316 39.526 274.808 39.658C275.3 39.79 275.69 39.97 275.978 40.198C276.266 40.426 276.41 40.684 276.41 40.972C276.41 41.128 276.356 41.278 276.248 41.422C276.14 41.566 275.996 41.638 275.816 41.638C275.648 41.638 275.51 41.608 275.402 41.548C275.306 41.488 275.21 41.41 275.114 41.314C275.03 41.218 274.91 41.134 274.754 41.062C274.61 40.978 274.4 40.912 274.124 40.864C273.848 40.816 273.572 40.792 273.296 40.792C272.636 40.792 272.054 40.948 271.55 41.26C271.058 41.572 270.668 41.992 270.38 42.52C270.092 43.048 269.948 43.648 269.948 44.32C269.948 44.992 270.086 45.592 270.362 46.12C270.638 46.648 271.022 47.068 271.514 47.38C272.006 47.692 272.576 47.848 273.224 47.848C273.644 47.848 273.98 47.812 274.232 47.74C274.484 47.668 274.694 47.584 274.862 47.488C275.078 47.368 275.24 47.248 275.348 47.128C275.468 47.008 275.624 46.948 275.816 46.948C276.02 46.948 276.176 47.014 276.284 47.146C276.404 47.278 276.464 47.44 276.464 47.632C276.464 47.848 276.314 48.076 276.014 48.316C275.714 48.556 275.306 48.76 274.79 48.928C274.286 49.096 273.71 49.18 273.062 49.18C272.15 49.18 271.352 48.97 270.668 48.55C269.984 48.118 269.45 47.536 269.066 46.804C268.694 46.06 268.508 45.232 268.508 44.32C268.508 43.408 268.7 42.586 269.084 41.854C269.48 41.122 270.026 40.54 270.722 40.108C271.418 39.676 272.228 39.46 273.152 39.46ZM282.846 39.55C283.638 39.55 284.262 39.724 284.718 40.072C285.186 40.408 285.516 40.864 285.708 41.44C285.912 42.004 286.014 42.634 286.014 43.33V48.262C286.014 48.466 285.942 48.64 285.798 48.784C285.666 48.928 285.498 49 285.294 49C285.09 49 284.916 48.928 284.772 48.784C284.64 48.64 284.574 48.466 284.574 48.262V43.33C284.574 42.874 284.508 42.466 284.376 42.106C284.244 41.734 284.022 41.44 283.71 41.224C283.41 40.996 282.996 40.882 282.468 40.882C281.976 40.882 281.526 40.996 281.118 41.224C280.71 41.44 280.386 41.734 280.146 42.106C279.906 42.466 279.786 42.874 279.786 43.33V48.262C279.786 48.466 279.714 48.64 279.57 48.784C279.438 48.928 279.27 49 279.066 49C278.862 49 278.688 48.928 278.544 48.784C278.412 48.64 278.346 48.466 278.346 48.262V36.4C278.346 36.196 278.412 36.028 278.544 35.896C278.688 35.752 278.862 35.68 279.066 35.68C279.282 35.68 279.456 35.752 279.588 35.896C279.72 36.028 279.786 36.196 279.786 36.4V41.782L279.426 42.178C279.486 41.866 279.618 41.554 279.822 41.242C280.026 40.918 280.284 40.63 280.596 40.378C280.908 40.126 281.256 39.928 281.64 39.784C282.024 39.628 282.426 39.55 282.846 39.55Z" fill="#630000"/>
</svg>
