<svg width="118" height="32" viewBox="0 0 118 32" fill="none" xmlns="http://www.w3.org/2000/svg">
<path d="M5.048 31.52C3.55467 31.52 2.392 31.296 1.56 30.848C0.738667 30.4 0.269333 29.7013 0.152 28.752C0.141333 28.656 0.130667 28.5333 0.12 28.384C0.109333 28.2347 0.109333 28.08 0.12 27.92C0.162667 27.344 0.370667 26.8747 0.744 26.512C1.11733 26.16 1.576 25.9467 2.12 25.872V25.392C1.61867 25.2533 1.22933 25.0453 0.952 24.768C0.674667 24.4907 0.514667 24.1333 0.472 23.696C0.461333 23.5893 0.456 23.4827 0.456 23.376C0.456 23.2693 0.461333 23.1573 0.472 23.04C0.504 22.592 0.685333 22.2187 1.016 21.92C1.35733 21.6213 1.768 21.44 2.248 21.376V20.896C1.59733 20.576 1.112 20.1013 0.792 19.472C0.472 18.8427 0.285333 18.0267 0.232 17.024C0.221333 16.416 0.210667 15.8773 0.2 15.408C0.189333 14.928 0.184 14.4693 0.184 14.032C0.184 13.584 0.189333 13.1147 0.2 12.624C0.210667 12.1333 0.221333 11.5733 0.232 10.944C0.285333 9.92 0.472 9.088 0.792 8.448C1.112 7.79733 1.61333 7.32266 2.296 7.024C2.97867 6.71467 3.87467 6.56 4.984 6.56C6.11467 6.56 7.01067 6.71467 7.672 7.024C8.33333 7.33333 8.824 7.824 9.144 8.496H9.64C9.69333 7.92 9.89067 7.49333 10.232 7.216C10.5733 6.93867 11.064 6.8 11.704 6.8V8.976H11.192C10.7547 8.976 10.408 9.14133 10.152 9.472C9.90667 9.80267 9.77867 10.32 9.768 11.024L9.736 12.608C9.74667 13.0027 9.752 13.376 9.752 13.728C9.752 14.0693 9.752 14.4053 9.752 14.736C9.752 15.0667 9.74667 15.4187 9.736 15.792C9.736 16.1653 9.72533 16.576 9.704 17.024C9.65067 18.0693 9.45867 18.9173 9.128 19.568C8.808 20.208 8.312 20.672 7.64 20.96C6.968 21.248 6.07733 21.392 4.968 21.392C4.11467 21.3813 3.50667 21.472 3.144 21.664C2.792 21.8453 2.616 22.1493 2.616 22.576V22.736C2.62667 22.992 2.696 23.2 2.824 23.36C2.96267 23.5093 3.20267 23.6213 3.544 23.696C3.896 23.7707 4.40267 23.8187 5.064 23.84C6.73867 23.8827 7.99733 24.1547 8.84 24.656C9.68267 25.1573 10.168 25.9893 10.296 27.152C10.3067 27.312 10.312 27.472 10.312 27.632C10.312 27.8027 10.3067 27.984 10.296 28.176C10.232 28.9973 9.98133 29.648 9.544 30.128C9.10667 30.6187 8.50933 30.9707 7.752 31.184C6.99467 31.408 6.09333 31.52 5.048 31.52ZM5.112 29.472C5.656 29.472 6.13067 29.424 6.536 29.328C6.94133 29.2427 7.256 29.0933 7.48 28.88C7.71467 28.6667 7.85867 28.3733 7.912 28C7.93333 27.8613 7.93867 27.728 7.928 27.6C7.928 27.4827 7.91733 27.3653 7.896 27.248C7.84267 26.864 7.69867 26.576 7.464 26.384C7.24 26.192 6.92533 26.0587 6.52 25.984C6.12533 25.9093 5.656 25.8613 5.112 25.84C4.30133 25.808 3.67733 25.8933 3.24 26.096C2.80267 26.2987 2.552 26.688 2.488 27.264C2.46667 27.3813 2.456 27.504 2.456 27.632C2.456 27.7707 2.46133 27.8933 2.472 28C2.51467 28.3947 2.64267 28.6987 2.856 28.912C3.06933 29.1253 3.36267 29.2693 3.736 29.344C4.12 29.4293 4.57867 29.472 5.112 29.472ZM4.968 19.232C5.69333 19.232 6.19467 19.088 6.472 18.8C6.76 18.512 6.92 18.032 6.952 17.36C6.97333 16.88 6.98933 16.3573 7 15.792C7.02133 15.2267 7.032 14.6453 7.032 14.048C7.032 13.4507 7.02133 12.8587 7 12.272C6.98933 11.6853 6.97333 11.1307 6.952 10.608C6.92 9.91467 6.75467 9.42933 6.456 9.152C6.168 8.864 5.672 8.72 4.968 8.72C4.264 8.72 3.75733 8.864 3.448 9.152C3.14933 9.44 2.98933 9.936 2.968 10.64C2.94667 11.248 2.93067 11.8507 2.92 12.448C2.90933 13.0347 2.904 13.6107 2.904 14.176C2.904 14.7413 2.90933 15.2853 2.92 15.808C2.93067 16.3307 2.94667 16.832 2.968 17.312C3 17.9733 3.16 18.4587 3.448 18.768C3.736 19.0773 4.24267 19.232 4.968 19.232ZM16.14 26.208C15.0093 26.208 14.172 25.8987 13.628 25.28C13.0947 24.6507 12.7747 23.6747 12.668 22.352C12.6573 22.096 12.6467 21.8293 12.636 21.552C12.636 21.2747 12.6413 21.0133 12.652 20.768C12.7053 19.9893 12.8493 19.3013 13.084 18.704C13.3187 18.096 13.692 17.5467 14.204 17.056C14.7267 16.5547 15.4307 16.0853 16.316 15.648C16.796 15.392 17.2867 15.1573 17.788 14.944C18.2893 14.72 18.8013 14.512 19.324 14.32V10.64C19.324 9.97867 19.196 9.49333 18.94 9.184C18.684 8.87467 18.22 8.72 17.548 8.72C16.9613 8.72 16.5293 8.85333 16.252 9.12C15.9853 9.376 15.836 9.856 15.804 10.56C15.7933 10.784 15.7827 11.0773 15.772 11.44C15.772 11.8027 15.772 12.176 15.772 12.56C15.7827 12.944 15.7933 13.2747 15.804 13.552H13.084C13.0733 13.2107 13.0627 12.7787 13.052 12.256C13.0413 11.7227 13.0413 11.248 13.052 10.832C13.0947 9.82933 13.2707 9.01333 13.58 8.384C13.8893 7.75467 14.3693 7.296 15.02 7.008C15.6813 6.70933 16.5507 6.56 17.628 6.56C18.7587 6.56 19.6493 6.72 20.3 7.04C20.9507 7.36 21.4093 7.86667 21.676 8.56C21.9533 9.24267 22.092 10.1333 22.092 11.232L22.076 26H19.292V24.192H18.876C18.6093 24.8533 18.268 25.3547 17.852 25.696C17.4467 26.0373 16.876 26.208 16.14 26.208ZM17.164 24.128C17.676 24.128 18.108 23.9787 18.46 23.68C18.8227 23.3813 19.1053 22.96 19.308 22.416V16.4C18.9347 16.528 18.556 16.6827 18.172 16.864C17.7987 17.0453 17.3933 17.2907 16.956 17.6C16.3587 17.9947 15.9587 18.4533 15.756 18.976C15.5533 19.4987 15.436 20.096 15.404 20.768C15.404 20.9707 15.404 21.1947 15.404 21.44C15.404 21.6747 15.4093 21.9093 15.42 22.144C15.4733 22.784 15.6493 23.2747 15.948 23.616C16.2573 23.9573 16.6627 24.128 17.164 24.128ZM25.3043 26V6.8H28.0883V8.768H28.6323C28.7923 8 29.0749 7.472 29.4803 7.184C29.8856 6.88533 30.4243 6.736 31.0963 6.736C31.2989 6.736 31.5016 6.74133 31.7043 6.752C31.9069 6.76267 32.0723 6.77333 32.2003 6.784V8.976H31.1283C30.1576 8.976 29.4483 9.14667 29.0003 9.488C28.5523 9.82933 28.2483 10.3573 28.0883 11.072V26H25.3043ZM40.2463 26.24C39.4463 26.24 38.8276 26.0693 38.3903 25.728C37.9636 25.3867 37.5743 24.8747 37.2223 24.192H36.8383V26H34.0543V0.4H36.8383V8.608H37.3983C37.7503 7.91467 38.1396 7.40267 38.5663 7.072C38.9929 6.73067 39.6116 6.56 40.4223 6.56C41.4996 6.56 42.3049 6.88533 42.8383 7.536C43.3716 8.176 43.6649 9.248 43.7183 10.752C43.7396 11.6373 43.7556 12.5707 43.7663 13.552C43.7876 14.5227 43.7983 15.504 43.7983 16.496C43.7983 17.488 43.7876 18.4587 43.7663 19.408C43.7556 20.3467 43.7396 21.2213 43.7183 22.032C43.6649 23.536 43.3449 24.6133 42.7583 25.264C42.1716 25.9147 41.3343 26.24 40.2463 26.24ZM39.3343 24.128C39.8889 24.128 40.2889 23.9787 40.5343 23.68C40.7796 23.3813 40.9129 22.9067 40.9343 22.256C40.9663 21.3813 40.9876 20.4693 40.9983 19.52C41.0196 18.5707 41.0303 17.5947 41.0303 16.592C41.0303 15.5893 41.0196 14.5813 40.9983 13.568C40.9876 12.544 40.9663 11.536 40.9343 10.544C40.9129 9.88267 40.7796 9.408 40.5343 9.12C40.2889 8.82133 39.8889 8.672 39.3343 8.672C38.7796 8.672 38.2729 8.82133 37.8143 9.12C37.3663 9.408 37.0409 9.86133 36.8383 10.48V22.32C37.0409 22.928 37.3663 23.3813 37.8143 23.68C38.2729 23.9787 38.7796 24.128 39.3343 24.128ZM49.765 26.208C48.6343 26.208 47.797 25.8987 47.253 25.28C46.7197 24.6507 46.3997 23.6747 46.293 22.352C46.2823 22.096 46.2717 21.8293 46.261 21.552C46.261 21.2747 46.2663 21.0133 46.277 20.768C46.3303 19.9893 46.4743 19.3013 46.709 18.704C46.9437 18.096 47.317 17.5467 47.829 17.056C48.3517 16.5547 49.0557 16.0853 49.941 15.648C50.421 15.392 50.9117 15.1573 51.413 14.944C51.9143 14.72 52.4263 14.512 52.949 14.32V10.64C52.949 9.97867 52.821 9.49333 52.565 9.184C52.309 8.87467 51.845 8.72 51.173 8.72C50.5863 8.72 50.1543 8.85333 49.877 9.12C49.6103 9.376 49.461 9.856 49.429 10.56C49.4183 10.784 49.4077 11.0773 49.397 11.44C49.397 11.8027 49.397 12.176 49.397 12.56C49.4077 12.944 49.4183 13.2747 49.429 13.552H46.709C46.6983 13.2107 46.6877 12.7787 46.677 12.256C46.6663 11.7227 46.6663 11.248 46.677 10.832C46.7197 9.82933 46.8957 9.01333 47.205 8.384C47.5143 7.75467 47.9943 7.296 48.645 7.008C49.3063 6.70933 50.1757 6.56 51.253 6.56C52.3837 6.56 53.2743 6.72 53.925 7.04C54.5757 7.36 55.0343 7.86667 55.301 8.56C55.5783 9.24267 55.717 10.1333 55.717 11.232L55.701 26H52.917V24.192H52.501C52.2343 24.8533 51.893 25.3547 51.477 25.696C51.0717 26.0373 50.501 26.208 49.765 26.208ZM50.789 24.128C51.301 24.128 51.733 23.9787 52.085 23.68C52.4477 23.3813 52.7303 22.96 52.933 22.416V16.4C52.5597 16.528 52.181 16.6827 51.797 16.864C51.4237 17.0453 51.0183 17.2907 50.581 17.6C49.9837 17.9947 49.5837 18.4533 49.381 18.976C49.1783 19.4987 49.061 20.096 49.029 20.768C49.029 20.9707 49.029 21.1947 49.029 21.44C49.029 21.6747 49.0343 21.9093 49.045 22.144C49.0983 22.784 49.2743 23.2747 49.573 23.616C49.8823 23.9573 50.2877 24.128 50.789 24.128ZM63.3293 31.52C61.8359 31.52 60.6733 31.296 59.8413 30.848C59.0199 30.4 58.5506 29.7013 58.4333 28.752C58.4226 28.656 58.4119 28.5333 58.4013 28.384C58.3906 28.2347 58.3906 28.08 58.4013 27.92C58.4439 27.344 58.6519 26.8747 59.0253 26.512C59.3986 26.16 59.8573 25.9467 60.4013 25.872V25.392C59.8999 25.2533 59.5106 25.0453 59.2333 24.768C58.9559 24.4907 58.7959 24.1333 58.7533 23.696C58.7426 23.5893 58.7373 23.4827 58.7373 23.376C58.7373 23.2693 58.7426 23.1573 58.7533 23.04C58.7853 22.592 58.9666 22.2187 59.2973 21.92C59.6386 21.6213 60.0493 21.44 60.5293 21.376V20.896C59.8786 20.576 59.3933 20.1013 59.0733 19.472C58.7533 18.8427 58.5666 18.0267 58.5133 17.024C58.5026 16.416 58.4919 15.8773 58.4813 15.408C58.4706 14.928 58.4653 14.4693 58.4653 14.032C58.4653 13.584 58.4706 13.1147 58.4813 12.624C58.4919 12.1333 58.5026 11.5733 58.5133 10.944C58.5666 9.92 58.7533 9.088 59.0733 8.448C59.3933 7.79733 59.8946 7.32266 60.5773 7.024C61.2599 6.71467 62.1559 6.56 63.2653 6.56C64.3959 6.56 65.2919 6.71467 65.9533 7.024C66.6146 7.33333 67.1053 7.824 67.4253 8.496H67.9213C67.9746 7.92 68.1719 7.49333 68.5133 7.216C68.8546 6.93867 69.3453 6.8 69.9853 6.8V8.976H69.4733C69.0359 8.976 68.6893 9.14133 68.4333 9.472C68.1879 9.80267 68.0599 10.32 68.0493 11.024L68.0173 12.608C68.0279 13.0027 68.0333 13.376 68.0333 13.728C68.0333 14.0693 68.0333 14.4053 68.0333 14.736C68.0333 15.0667 68.0279 15.4187 68.0173 15.792C68.0173 16.1653 68.0066 16.576 67.9853 17.024C67.9319 18.0693 67.7399 18.9173 67.4093 19.568C67.0893 20.208 66.5933 20.672 65.9213 20.96C65.2493 21.248 64.3586 21.392 63.2493 21.392C62.3959 21.3813 61.7879 21.472 61.4253 21.664C61.0733 21.8453 60.8973 22.1493 60.8973 22.576V22.736C60.9079 22.992 60.9773 23.2 61.1053 23.36C61.2439 23.5093 61.4839 23.6213 61.8253 23.696C62.1773 23.7707 62.6839 23.8187 63.3453 23.84C65.0199 23.8827 66.2786 24.1547 67.1213 24.656C67.9639 25.1573 68.4493 25.9893 68.5773 27.152C68.5879 27.312 68.5933 27.472 68.5933 27.632C68.5933 27.8027 68.5879 27.984 68.5773 28.176C68.5133 28.9973 68.2626 29.648 67.8253 30.128C67.3879 30.6187 66.7906 30.9707 66.0333 31.184C65.2759 31.408 64.3746 31.52 63.3293 31.52ZM63.3933 29.472C63.9373 29.472 64.4119 29.424 64.8173 29.328C65.2226 29.2427 65.5373 29.0933 65.7613 28.88C65.9959 28.6667 66.1399 28.3733 66.1933 28C66.2146 27.8613 66.2199 27.728 66.2093 27.6C66.2093 27.4827 66.1986 27.3653 66.1773 27.248C66.1239 26.864 65.9799 26.576 65.7453 26.384C65.5213 26.192 65.2066 26.0587 64.8013 25.984C64.4066 25.9093 63.9373 25.8613 63.3933 25.84C62.5826 25.808 61.9586 25.8933 61.5213 26.096C61.0839 26.2987 60.8333 26.688 60.7693 27.264C60.7479 27.3813 60.7373 27.504 60.7373 27.632C60.7373 27.7707 60.7426 27.8933 60.7533 28C60.7959 28.3947 60.9239 28.6987 61.1373 28.912C61.3506 29.1253 61.6439 29.2693 62.0173 29.344C62.4013 29.4293 62.8599 29.472 63.3933 29.472ZM63.2493 19.232C63.9746 19.232 64.4759 19.088 64.7533 18.8C65.0413 18.512 65.2013 18.032 65.2333 17.36C65.2546 16.88 65.2706 16.3573 65.2812 15.792C65.3026 15.2267 65.3133 14.6453 65.3133 14.048C65.3133 13.4507 65.3026 12.8587 65.2812 12.272C65.2706 11.6853 65.2546 11.1307 65.2333 10.608C65.2013 9.91467 65.0359 9.42933 64.7373 9.152C64.4493 8.864 63.9533 8.72 63.2493 8.72C62.5453 8.72 62.0386 8.864 61.7293 9.152C61.4306 9.44 61.2706 9.936 61.2493 10.64C61.2279 11.248 61.2119 11.8507 61.2013 12.448C61.1906 13.0347 61.1853 13.6107 61.1853 14.176C61.1853 14.7413 61.1906 15.2853 61.2013 15.808C61.2119 16.3307 61.2279 16.832 61.2493 17.312C61.2813 17.9733 61.4413 18.4587 61.7293 18.768C62.0173 19.0773 62.5239 19.232 63.2493 19.232ZM75.9565 26.24C74.3245 26.24 73.1458 25.904 72.4205 25.232C71.6952 24.56 71.2952 23.4507 71.2205 21.904C71.1992 21.1573 71.1832 20.32 71.1725 19.392C71.1618 18.4533 71.1565 17.4773 71.1565 16.464C71.1565 15.4507 71.1618 14.4693 71.1725 13.52C71.1832 12.56 71.1992 11.7013 71.2205 10.944C71.3058 9.36533 71.7112 8.24 72.4365 7.568C73.1725 6.896 74.3352 6.56 75.9245 6.56C77.4818 6.56 78.6125 6.89067 79.3165 7.552C80.0205 8.21333 80.4098 9.30667 80.4845 10.832C80.4952 11.1413 80.5058 11.6107 80.5165 12.24C80.5272 12.8693 80.5272 13.5947 80.5165 14.416C80.5165 15.2267 80.4952 16.064 80.4525 16.928H73.9565C73.9565 17.76 73.9618 18.608 73.9725 19.472C73.9938 20.3253 74.0098 21.2213 74.0205 22.16C74.0418 22.8853 74.1965 23.3867 74.4845 23.664C74.7832 23.9413 75.2632 24.08 75.9245 24.08C76.5645 24.08 77.0178 23.9413 77.2845 23.664C77.5618 23.3867 77.7165 22.8853 77.7485 22.16C77.7698 21.808 77.7805 21.3813 77.7805 20.88C77.7805 20.368 77.7698 19.8027 77.7485 19.184H80.4525C80.4845 19.568 80.5005 20.016 80.5005 20.528C80.5112 21.04 80.5058 21.4987 80.4845 21.904C80.4098 23.4507 80.0312 24.56 79.3485 25.232C78.6765 25.904 77.5458 26.24 75.9565 26.24ZM73.9565 14.864H77.7805C77.7805 14.2667 77.7805 13.68 77.7805 13.104C77.7912 12.5173 77.7912 12 77.7805 11.552C77.7698 11.104 77.7592 10.7733 77.7485 10.56C77.7165 9.89867 77.5618 9.42933 77.2845 9.152C77.0072 8.864 76.5538 8.72 75.9245 8.72C75.2525 8.72 74.7725 8.864 74.4845 9.152C74.1965 9.42933 74.0418 9.89867 74.0205 10.56C74.0098 11.3387 73.9992 12.08 73.9885 12.784C73.9778 13.488 73.9672 14.1813 73.9565 14.864ZM87.9588 26.256C86.2521 26.256 85.0308 25.888 84.2948 25.152C83.5694 24.416 83.1908 23.1947 83.1588 21.488C83.1374 20.144 83.1214 18.7787 83.1108 17.392C83.1001 16.0053 83.0948 14.6133 83.0948 13.216C83.0948 11.808 83.1001 10.4107 83.1108 9.024C83.1214 7.62667 83.1374 6.256 83.1588 4.912C83.1908 3.376 83.5801 2.20267 84.3268 1.392C85.0734 0.581332 86.2788 0.175999 87.9428 0.175999C89.6068 0.175999 90.8121 0.543999 91.5588 1.28C92.3161 2.00533 92.7161 3.216 92.7588 4.912C92.7694 5.30667 92.7748 5.78667 92.7748 6.352C92.7748 6.91733 92.7694 7.48267 92.7588 8.048C92.7588 8.60267 92.7534 9.07733 92.7428 9.472H89.9427C89.9534 8.96 89.9641 8.416 89.9748 7.84C89.9854 7.264 89.9908 6.68267 89.9908 6.096C89.9908 5.50933 89.9854 4.96 89.9748 4.448C89.9641 3.76533 89.7934 3.26933 89.4628 2.96C89.1428 2.65067 88.6361 2.496 87.9428 2.496C87.2708 2.496 86.7748 2.65067 86.4548 2.96C86.1454 3.26933 85.9801 3.76533 85.9588 4.448C85.9268 5.92 85.9001 7.38667 85.8788 8.848C85.8681 10.2987 85.8628 11.7547 85.8628 13.216C85.8628 14.6667 85.8681 16.1227 85.8788 17.584C85.9001 19.0347 85.9268 20.4907 85.9588 21.952C85.9801 22.6453 86.1508 23.152 86.4708 23.472C86.7908 23.7813 87.2868 23.936 87.9588 23.936C88.6948 23.936 89.2334 23.7813 89.5748 23.472C89.9161 23.152 90.0921 22.6453 90.1028 21.952C90.1134 21.4187 90.1188 20.848 90.1188 20.24C90.1188 19.6213 90.1134 19.008 90.1028 18.4C90.1028 17.7813 90.0974 17.2053 90.0868 16.672H92.8708C92.9028 17.4827 92.9188 18.288 92.9188 19.088C92.9188 19.888 92.9081 20.688 92.8868 21.488C92.8441 23.1947 92.4388 24.416 91.6708 25.152C90.9134 25.888 89.6761 26.256 87.9588 26.256ZM98.6713 26.208C97.5406 26.208 96.7033 25.8987 96.1593 25.28C95.6259 24.6507 95.3059 23.6747 95.1993 22.352C95.1886 22.096 95.1779 21.8293 95.1673 21.552C95.1673 21.2747 95.1726 21.0133 95.1833 20.768C95.2366 19.9893 95.3806 19.3013 95.6153 18.704C95.8499 18.096 96.2233 17.5467 96.7353 17.056C97.2579 16.5547 97.9619 16.0853 98.8473 15.648C99.3273 15.392 99.8179 15.1573 100.319 14.944C100.821 14.72 101.333 14.512 101.855 14.32V10.64C101.855 9.97867 101.727 9.49333 101.471 9.184C101.215 8.87467 100.751 8.72 100.079 8.72C99.4926 8.72 99.0606 8.85333 98.7833 9.12C98.5166 9.376 98.3673 9.856 98.3353 10.56C98.3246 10.784 98.3139 11.0773 98.3033 11.44C98.3033 11.8027 98.3033 12.176 98.3033 12.56C98.3139 12.944 98.3246 13.2747 98.3353 13.552H95.6153C95.6046 13.2107 95.5939 12.7787 95.5833 12.256C95.5726 11.7227 95.5726 11.248 95.5833 10.832C95.6259 9.82933 95.8019 9.01333 96.1113 8.384C96.4206 7.75467 96.9006 7.296 97.5513 7.008C98.2126 6.70933 99.0819 6.56 100.159 6.56C101.29 6.56 102.181 6.72 102.831 7.04C103.482 7.36 103.941 7.86667 104.207 8.56C104.485 9.24267 104.623 10.1333 104.623 11.232L104.607 26H101.823V24.192H101.407C101.141 24.8533 100.799 25.3547 100.383 25.696C99.9779 26.0373 99.4073 26.208 98.6713 26.208ZM99.6953 24.128C100.207 24.128 100.639 23.9787 100.991 23.68C101.354 23.3813 101.637 22.96 101.839 22.416V16.4C101.466 16.528 101.087 16.6827 100.703 16.864C100.33 17.0453 99.9246 17.2907 99.4873 17.6C98.8899 17.9947 98.4899 18.4533 98.2873 18.976C98.0846 19.4987 97.9673 20.096 97.9353 20.768C97.9353 20.9707 97.9353 21.1947 97.9353 21.44C97.9353 21.6747 97.9406 21.9093 97.9513 22.144C98.0046 22.784 98.1806 23.2747 98.4793 23.616C98.7886 23.9573 99.1939 24.128 99.6953 24.128ZM107.836 26V6.8H110.62V8.608H111.18C111.51 7.94667 111.9 7.44 112.348 7.088C112.796 6.736 113.414 6.56 114.204 6.56C115.281 6.56 116.102 6.88533 116.668 7.536C117.244 8.176 117.532 9.248 117.532 10.752V26H114.748V10.544C114.737 9.88267 114.598 9.408 114.332 9.12C114.076 8.82133 113.67 8.672 113.116 8.672C112.593 8.672 112.097 8.832 111.628 9.152C111.158 9.46133 110.822 9.904 110.62 10.48V26H107.836Z" fill="#0C9700"/>
</svg>
